<svg xmlns="http://www.w3.org/2000/svg" width="1000" id="svg" height="247"><style>text { font-family: Arial }</style><polyline fill="none" stroke="black" stroke-width="2" points="10,10,10,25,159.9846954392409,25,159.9846954392409,10"/><text x="10" y="35" font-family="arial, helvetica, sans-serif" font-size="10px" fill="black" font-style="italic" text-anchor="start">Scale: 1kB</text><path d="M137.63697581879399,77L35.5273951637588,77L10,92L35.5273951637588,107L137.63697581879399,107L137.63697581879399,77" fill="#999999" stroke="black" stroke-width="2" z-index="95"/><path d="M267.6737067646158,77L166.284052647689,77L140.9366391184573,92L166.284052647689,107L267.6737067646158,107L267.6737067646158,77" fill="#ccffcc" stroke="black" stroke-width="2" z-index="95"/><path d="M381.062136516682,77L290.8313437404347,77L268.27364554637285,92L290.8313437404347,107L381.062136516682,107L381.062136516682,77" fill="#339966" stroke="black" stroke-width="2" z-index="95"/><path d="M468.5032139577594,77L409.94918885827974,77L395.31068258340986,92L409.94918885827974,107L468.5032139577594,107L468.5032139577594,77" fill="red" stroke="black" stroke-width="2" z-index="95"/><path d="M686.5809611264157,77L511.75880012243647,77L468.0532598714417,92L511.75880012243647,107L686.5809611264157,107L686.5809611264157,77" fill="#73daf0" stroke="black" stroke-width="2" z-index="95"/><path d="M763.2231404958678,77L716.9078665442303,77L705.3290480563209,92L716.9078665442303,107L763.2231404958678,107L763.2231404958678,77" fill="#999999" stroke="black" stroke-width="2" z-index="95"/><path d="M878.8613406795224,77L786.8307315580041,77L763.8230792776246,92L786.8307315580041,107L878.8613406795224,107L878.8613406795224,77" fill="#999999" stroke="black" stroke-width="2" z-index="95"/><path d="M10,167L157.46495255586166,167L194.33119069482706,182L157.46495255586166,197L10,197L10,167" fill="#999999" stroke="black" stroke-width="2" z-index="95"/><path d="M252.37526782981325,167L206.77992041628403,167L195.38108356290172,182L206.77992041628403,197L252.37526782981325,197L252.37526782981325,167" fill="lime" stroke="black" stroke-width="2" z-index="95"/><path d="M394.71074380165294,167L292.24119987756353,167L266.6238138965412,182L292.24119987756353,197L394.71074380165294,197L394.71074380165294,167" fill="#ccffcc" stroke="black" stroke-width="2" z-index="95"/><path d="M532.2467095194368,167L437.33639424548517,167L413.60881542699724,182L437.33639424548517,197L532.2467095194368,197L532.2467095194368,167" fill="#339966" stroke="black" stroke-width="2" z-index="95"/><path d="M622.2375267829814,167L564.7633914906643,167L550.394857667585,182L564.7633914906643,197L622.2375267829814,197L622.2375267829814,167" fill="red" stroke="black" stroke-width="2" z-index="95"/><path d="M834.4658708295071,167L664.3232323232323,167L621.7875726966636,182L664.3232323232323,197L834.4658708295071,197L834.4658708295071,167" fill="#73daf0" stroke="black" stroke-width="2" z-index="95"/><path d="M990,167L882.4909703091521,167L855.6137128864401,182L882.4909703091521,197L990,197L990,167" fill="#999999" stroke="black" stroke-width="2" z-index="95"/><text class="genomelabel" y="62" x="10" z-index="100"><tspan text-anchor="start"><tspan style="font-family: arial, helvetica, sans-serif; font-size: 12pt;">Acinetobacter sp. ADP1</tspan></tspan></text><text class="genomelabel" y="152" x="10" z-index="100"><tspan text-anchor="start"><tspan style="font-family: arial, helvetica, sans-serif; font-size: 12pt;">Salmonella enterica</tspan></tspan></text><text class="genelabel" y="75" x="38.5273951637588" z-index="100"><tspan text-anchor="start"><tspan fill="#000000"><tspan font-style="italic"/></tspan></tspan></text><text class="genelabel" y="75" x="169.284052647689" z-index="100"><tspan text-anchor="start"><tspan fill="#000000"><tspan font-style="italic">panC</tspan></tspan></tspan></text><text class="genelabel" y="75" x="293.8313437404347" z-index="100"><tspan text-anchor="start"><tspan fill="#000000"><tspan font-style="italic">panB</tspan></tspan></tspan></text><text class="genelabel" y="75" x="412.94918885827974" z-index="100"><tspan text-anchor="start"><tspan fill="#000000"><tspan font-style="italic">folK</tspan></tspan></tspan></text><text class="genelabel" y="75" x="514.7588001224365" z-index="100"><tspan text-anchor="start"><tspan fill="#000000"><tspan font-style="italic">pcnB</tspan></tspan></tspan></text><text class="genelabel" y="75" x="719.9078665442303" z-index="100"><tspan text-anchor="start"><tspan fill="#000000"><tspan font-style="italic"/></tspan></tspan></text><text class="genelabel" y="75" x="789.8307315580041" z-index="100"><tspan text-anchor="start"><tspan fill="#000000"><tspan font-style="italic"/></tspan></tspan></text><text class="genelabel" y="165" x="13" z-index="100"><tspan text-anchor="start"><tspan fill="#000000"><tspan font-style="italic"/></tspan></tspan></text><text class="genelabel" y="165" x="209.77992041628403" z-index="100"><tspan text-anchor="start"><tspan fill="#000000"><tspan font-style="italic">panG</tspan></tspan></tspan></text><text class="genelabel" y="165" x="295.24119987756353" z-index="100"><tspan text-anchor="start"><tspan fill="#000000"><tspan font-style="italic">panC</tspan></tspan></tspan></text><text class="genelabel" y="165" x="440.33639424548517" z-index="100"><tspan text-anchor="start"><tspan fill="#000000"><tspan font-style="italic">panB</tspan></tspan></tspan></text><text class="genelabel" y="165" x="567.7633914906643" z-index="100"><tspan text-anchor="start"><tspan fill="#000000"><tspan font-style="italic">folK</tspan></tspan></tspan></text><text class="genelabel" y="165" x="667.3232323232323" z-index="100"><tspan text-anchor="start"><tspan fill="#000000"><tspan font-style="italic">pcnB</tspan></tspan></tspan></text><text class="genelabel" y="165" x="885.4909703091521" z-index="100"><tspan text-anchor="start"><tspan fill="#000000"><tspan font-style="italic"/></tspan></tspan></text></svg>