<svg xmlns="http://www.w3.org/2000/svg" width="1128.0925860234124" id="svg" height="234"><polyline fill="none" stroke="black" stroke-width="2" points="10,10,10,25,183.82050372472509,25,183.82050372472509,10"/><text x="10" y="35" font-size="10px" fill="black" font-style="italic" text-anchor="start">Scale: 1kB</text><path d="M12.564384533522526,70L11.312876906704505,70L11,85L11.312876906704505,100L12.564384533522526,100L12.564384533522526,70" fill="transparent" stroke="transparent" stroke-width="2" z-index="95"/><path d="M171.48563320326355,70L53.14863426747071,70L23.564384533522528,85L53.14863426747071,100L171.48563320326355,100L171.48563320326355,70" fill="grey" stroke="black" stroke-width="2" z-index="95"/><path d="M329.3639588506562,70L211.86129833274208,70L182.48563320326355,85L211.86129833274208,100L329.3639588506562,100L329.3639588506562,70" fill="#61da79" stroke="black" stroke-width="2" z-index="95"/><path d="M471.0769776516495,70L366.50656261085487,70L340.3639588506562,85L366.50656261085487,100L471.0769776516495,100L471.0769776516495,70" fill="#85b2c0" stroke="black" stroke-width="2" z-index="95"/><path d="M566.9013834693153,70L499.04185881518265,70L482.0769776516495,85L499.04185881518265,100L566.9013834693153,100L566.9013834693153,70" fill="#26bbdd" stroke="black" stroke-width="2" z-index="95"/><path d="M831.1578573962397,70L628.5526782547001,70L577.9013834693153,85L628.5526782547001,100L831.1578573962397,100L831.1578573962397,70" fill="#73daf0" stroke="black" stroke-width="2" z-index="95"/><path d="M909.2525718339836,70L855.5768002837884,70L842.1578573962397,85L855.5768002837884,100L909.2525718339836,100L909.2525718339836,70" fill="grey" stroke="black" stroke-width="2" z-index="95"/><path d="M1053.5728981908478,70L946.9166371053564,70L920.2525718339836,85L946.9166371053564,100L1053.5728981908478,100L1053.5728981908478,70" fill="grey" stroke="black" stroke-width="2" z-index="95"/><path d="M11,154L181.90031926214974,154L224.62539907768715,169L181.90031926214974,184L11,184L11,154" fill="grey" stroke="black" stroke-width="2" z-index="95"/><path d="M301.67719049308266,154L248.83575736076625,154L235.62539907768715,169L248.83575736076625,184L301.67719049308266,184L301.67719049308266,154" fill="#b015e9" stroke="black" stroke-width="2" z-index="95"/><path d="M461.1199006739979,154L342.3657325292657,154L312.67719049308266,169L342.3657325292657,184L461.1199006739979,184L461.1199006739979,154" fill="#7adda9" stroke="black" stroke-width="2" z-index="95"/><path d="M609.6119191202554,154L499.6183043632494,154L472.1199006739979,169L499.6183043632494,184L609.6119191202554,184L609.6119191202554,154" fill="#ebd069" stroke="black" stroke-width="2" z-index="95"/><path d="M703.8719404043986,154L637.263923377084,154L620.6119191202554,169L637.263923377084,184L703.8719404043986,184L703.8719404043986,154" fill="#26bbdd" stroke="black" stroke-width="2" z-index="95"/><path d="M961.3494146860588,154L764.1674352607306,154L714.8719404043986,169L764.1674352607306,184L961.3494146860588,184L961.3494146860588,154" fill="#a054d3" stroke="black" stroke-width="2" z-index="95"/><path d="M1128.0925860234124,154L1003.4980489535295,154L972.3494146860588,169L1003.4980489535295,184L1128.0925860234124,184L1128.0925860234124,154" fill="grey" stroke="black" stroke-width="2" z-index="95"/><text class="genomelabel" y="52" x="10" z-index="100">Acinetobacter sp. ADP1</text><text class="genomelabel" y="136" x="10" z-index="100">Salmonella enterica</text><text class="genelabel" y="66.57142857142857" x="14.312876906704505" z-index="100"/><text class="genelabel" y="66.57142857142857" x="56.14863426747071" z-index="100"><tspan text-anchor="start"><tspan font-family="verdana, geneva, sans-serif"><tspan font-style="italic"/></tspan></tspan></text><text class="genelabel" y="66.57142857142857" x="214.86129833274208" z-index="100"><tspan text-anchor="start"><tspan font-family="verdana, geneva, sans-serif"><tspan font-style="italic">panC</tspan></tspan></tspan></text><text class="genelabel" y="66.57142857142857" x="369.50656261085487" z-index="100"><tspan text-anchor="start"><tspan font-family="verdana, geneva, sans-serif"><tspan font-style="italic">panB</tspan></tspan></tspan></text><text class="genelabel" y="66.57142857142857" x="502.04185881518265" z-index="100"><tspan text-anchor="start"><tspan font-family="verdana, geneva, sans-serif"><tspan font-style="italic">folK</tspan></tspan></tspan></text><text class="genelabel" y="66.57142857142857" x="631.5526782547001" z-index="100"><tspan text-anchor="start"><tspan font-family="verdana, geneva, sans-serif"><tspan font-style="italic">pcnB</tspan></tspan></tspan></text><text class="genelabel" y="66.57142857142857" x="858.5768002837884" z-index="100"><tspan text-anchor="start"><tspan font-family="verdana, geneva, sans-serif"><tspan font-style="italic"/></tspan></tspan></text><text class="genelabel" y="66.57142857142857" x="949.9166371053564" z-index="100"><tspan text-anchor="start"><tspan font-family="verdana, geneva, sans-serif"><tspan font-style="italic"/></tspan></tspan></text><text class="genelabel" y="150.57142857142858" x="14" z-index="100"><tspan text-anchor="start"><tspan font-family="verdana, geneva, sans-serif"><tspan font-style="italic"/></tspan></tspan></text><text class="genelabel" y="150.57142857142858" x="251.83575736076625" z-index="100"><tspan text-anchor="start"><tspan font-family="verdana, geneva, sans-serif"><tspan font-style="italic">panG</tspan></tspan></tspan></text><text class="genelabel" y="150.57142857142858" x="345.3657325292657" z-index="100"><tspan text-anchor="start"><tspan font-family="verdana, geneva, sans-serif"><tspan font-style="italic">panC</tspan></tspan></tspan></text><text class="genelabel" y="150.57142857142858" x="502.6183043632494" z-index="100"><tspan text-anchor="start"><tspan font-family="verdana, geneva, sans-serif"><tspan font-style="italic">panB</tspan></tspan></tspan></text><text class="genelabel" y="150.57142857142858" x="640.263923377084" z-index="100"><tspan text-anchor="start"><tspan font-family="verdana, geneva, sans-serif"><tspan font-style="italic">folK</tspan></tspan></tspan></text><text class="genelabel" y="150.57142857142858" x="767.1674352607306" z-index="100"><tspan text-anchor="start"><tspan font-family="verdana, geneva, sans-serif"><tspan font-style="italic">pcnB</tspan></tspan></tspan></text><text class="genelabel" y="150.57142857142858" x="1006.4980489535295" z-index="100"><tspan text-anchor="start"><tspan font-family="verdana, geneva, sans-serif"><tspan font-style="italic"/></tspan></tspan></text></svg>