<svg xmlns="http://www.w3.org/2000/svg" width="1230" id="svg" height="617"><polyline fill="none" stroke="black" stroke-width="2" points="10,10,10,25,191.3549160671463,25,191.3549160671463,10"/><text x="10" y="35" font-family="arial, helvetica, sans-serif" font-size="10px" fill="black" font-style="italic" text-anchor="start">Scale: 1kB</text><path d="M218.19544364508394,89.5L51.63908872901678,89.5L51.63908872901678,77L10,102L51.63908872901678,127L51.63908872901678,114.5L218.19544364508394,114.5L218.19544364508394,89.5" fill="#00ccff" stroke="black" stroke-width="2" z-index="95"/><path d="M381.05215827338134,89.5L251.05695443645087,89.5L251.05695443645087,77L218.55815347721824,102L251.05695443645087,127L251.05695443645087,114.5L381.05215827338134,114.5L381.05215827338134,89.5" fill="#999999" stroke="black" stroke-width="2" z-index="95"/><path d="M429.6552757793765,89.5L534.8411270983213,89.5L534.8411270983213,77L561.1375899280575,102L534.8411270983213,127L534.8411270983213,114.5L429.6552757793765,114.5L429.6552757793765,89.5" fill="yellow" stroke="black" stroke-width="2" z-index="95"/><path d="M560.5935251798561,89.5L716.7038369304556,89.5L716.7038369304556,77L755.7314148681055,102L716.7038369304556,127L716.7038369304556,114.5L560.5935251798561,114.5L560.5935251798561,89.5" fill="#339966" stroke="black" stroke-width="2" z-index="95"/><path d="M935.4541366906475,89.5L827.2215227817745,89.5L827.2215227817745,77L800.1633693045563,102L827.2215227817745,127L827.2215227817745,114.5L935.4541366906475,114.5L935.4541366906475,89.5" fill="black" stroke="black" stroke-width="2" z-index="95"/><path d="M1122.2497002398081,89.5L1017.4991007194245,89.5L1017.4991007194245,77L991.3114508393286,102L1017.4991007194245,127L1017.4991007194245,114.5L1122.2497002398081,114.5L1122.2497002398081,89.5" fill="red" stroke="black" stroke-width="2" z-index="95"/><path d="M1220,89.5L1141.3645083932854,89.5L1141.3645083932854,77L1121.7056354916067,102L1141.3645083932854,127L1141.3645083932854,114.5L1220,114.5L1220,89.5" fill="magenta" stroke="black" stroke-width="2" z-index="95"/><path d="M211.12260191846522,199.5L50.22452038369303,199.5L50.22452038369303,187L10,212L50.22452038369303,237L50.22452038369303,224.5L211.12260191846522,224.5L211.12260191846522,199.5" fill="#00ccff" stroke="black" stroke-width="2" z-index="95"/><path d="M407.3486211031175,199.5L253.8498201438849,199.5L253.8498201438849,187L215.47511990407673,212L253.8498201438849,237L253.8498201438849,224.5L407.3486211031175,224.5L407.3486211031175,199.5" fill="#339966" stroke="black" stroke-width="2" z-index="95"/><path d="M512.5344724220623,199.5L431.2874700239808,199.5L431.2874700239808,187L410.9757194244604,212L431.2874700239808,237L431.2874700239808,224.5L512.5344724220623,224.5L512.5344724220623,199.5" fill="yellow" stroke="black" stroke-width="2" z-index="95"/><path d="M206.7700839328537,309.5L49.354016786570725,309.5L49.354016786570725,297L10,322L49.354016786570725,347L49.354016786570725,334.5L206.7700839328537,334.5L206.7700839328537,309.5" fill="#00ccff" stroke="black" stroke-width="2" z-index="95"/><path d="M363.8234412470024,309.5L256.896582733813,309.5L256.896582733813,297L230.1648681055156,322L256.896582733813,347L256.896582733813,334.5L363.8234412470024,334.5L363.8234412470024,309.5" fill="#999999" stroke="black" stroke-width="2" z-index="95"/><path d="M378.3318345323741,309.5L495.7047362110312,309.5L495.7047362110312,297L525.0479616306955,322L495.7047362110312,347L495.7047362110312,334.5L378.3318345323741,334.5L378.3318345323741,309.5" fill="yellow" stroke="black" stroke-width="2" z-index="95"/><path d="M525.4106714628298,309.5L691.5317745803358,309.5L691.5317745803358,297L733.0620503597122,322L691.5317745803358,347L691.5317745803358,334.5L525.4106714628298,334.5L525.4106714628298,309.5" fill="#339966" stroke="black" stroke-width="2" z-index="95"/><path d="M10,419.5L172.6390887290168,419.5L172.6390887290168,407L213.298860911271,432L172.6390887290168,457L172.6390887290168,444.5L10,444.5L10,419.5" fill="#00ccff" stroke="black" stroke-width="2" z-index="95"/><path d="M213.6615707434053,419.5L364.11360911270987,419.5L364.11360911270987,407L401.726618705036,432L364.11360911270987,457L364.11360911270987,444.5L213.6615707434053,444.5L213.6615707434053,419.5" fill="#339966" stroke="black" stroke-width="2" z-index="95"/><path d="M400.4571342925659,419.5L501.2904676258992,419.5L501.2904676258992,407L526.4988009592325,432L501.2904676258992,457L501.2904676258992,444.5L400.4571342925659,444.5L400.4571342925659,419.5" fill="yellow" stroke="black" stroke-width="2" z-index="95"/><path d="M10,529.5L105.17505995203838,529.5L105.17505995203838,517L128.96882494004797,542L105.17505995203838,567L105.17505995203838,554.5L10,554.5L10,529.5" fill="yellow" stroke="black" stroke-width="2" z-index="95"/><path d="M127.1552757793765,529.5L295.8878896882494,529.5L295.8878896882494,517L338.0710431654676,542L295.8878896882494,567L295.8878896882494,554.5L127.1552757793765,554.5L127.1552757793765,529.5" fill="#339966" stroke="black" stroke-width="2" z-index="95"/><text class="genomelabel" y="62" x="10" z-index="100"><tspan text-anchor="start"><tspan font-style="italic"><tspan font-weight="bold"><tspan style="font-family: arial, helvetica, sans-serif; font-size: 12pt;">Cryptobacterium curtum DSM 15641</tspan></tspan></tspan></tspan></text><text class="genomelabel" y="172" x="10" z-index="100"><tspan text-anchor="start"><tspan font-style="italic"><tspan font-weight="bold"><tspan style="font-family: arial, helvetica, sans-serif; font-size: 12pt;">Syntrophomonas wolfei subsp. wolfei str. Goettingen G311</tspan></tspan></tspan></tspan></text><text class="genomelabel" y="282" x="10" z-index="100"><tspan text-anchor="start"><tspan font-style="italic"><tspan font-weight="bold"><tspan style="font-family: arial, helvetica, sans-serif; font-size: 12pt;">Eggerthella lenta DSM 2243</tspan></tspan></tspan></tspan></text><text class="genomelabel" y="392" x="10" z-index="100"><tspan text-anchor="start"><tspan font-style="italic"><tspan font-weight="bold"><tspan style="font-family: arial, helvetica, sans-serif; font-size: 12pt;">Solobacterium moorei F0204</tspan></tspan></tspan></tspan></text><text class="genomelabel" y="502" x="10" z-index="100"><tspan text-anchor="start"><tspan font-style="italic"><tspan font-weight="bold"><tspan style="font-family: arial, helvetica, sans-serif; font-size: 12pt;">Atopobium rimae ATCC 49626</tspan></tspan></tspan></tspan></text><text class="genelabel" y="141.4" x="134.91726618705036" z-index="100"><tspan text-anchor="middle">TGT</tspan></text><text class="genelabel" y="141.4" x="316.0545563549161" z-index="100"><tspan text-anchor="middle">HAD</tspan></text><text class="genelabel" y="141.4" x="482.2482014388489" z-index="100"><tspan text-anchor="middle"><tspan font-weight="bold"><tspan font-family="arial, helvetica, sans-serif">DUF208</tspan></tspan></tspan></text><text class="genelabel" y="141.4" x="638.6486810551559" z-index="100"><tspan text-anchor="middle">QueH</tspan></text><text class="genelabel" y="141.4" x="881.337829736211" z-index="100"><tspan text-anchor="middle"><tspan fill="#000000">COG1738</tspan></tspan></text><text class="genelabel" y="141.4" x="1069.8744004796163" z-index="100"><tspan text-anchor="middle">QueC</tspan></text><text class="genelabel" y="141.4" x="1180.6822541966426" z-index="100"><tspan text-anchor="middle">QueF</tspan></text><text class="genelabel" y="251.4" x="130.67356115107913" z-index="100"><tspan text-anchor="middle">DUF208</tspan></text><text class="genelabel" y="251.4" x="330.5992206235012" z-index="100"><tspan text-anchor="middle">QueH</tspan></text><text class="genelabel" y="251.4" x="434.2874700239808" z-index="100"><tspan text-anchor="start"><tspan font-weight="bold">DUF208</tspan></tspan></text><text class="genelabel" y="361.4" x="128.0620503597122" z-index="100"><tspan text-anchor="middle">TGT</tspan></text><text class="genelabel" y="361.4" x="310.36001199040766" z-index="100"><tspan text-anchor="middle">HAD</tspan></text><text class="genelabel" y="361.4" x="437.01828537170263" z-index="100"><tspan text-anchor="middle"><tspan font-weight="bold">DUF208</tspan></tspan></text><text class="genelabel" y="361.4" x="608.4712230215828" z-index="100"><tspan text-anchor="middle">QueH</tspan></text><text class="genelabel" y="471.4" x="91.3195443645084" z-index="100"><tspan text-anchor="middle">TGT</tspan></text><text class="genelabel" y="471.4" x="288.8875899280576" z-index="100"><tspan text-anchor="middle">QueH</tspan></text><text class="genelabel" y="471.4" x="450.87380095923254" z-index="100"><tspan text-anchor="middle"><tspan font-weight="bold">DUF208</tspan></tspan></text><text class="genelabel" y="581.4" x="57.58752997601919" z-index="100"><tspan text-anchor="middle"><tspan font-weight="bold">DUF208</tspan></tspan></text><text class="genelabel" y="581.4" x="211.52158273381295" z-index="100"><tspan text-anchor="middle">QueH</tspan></text></svg>