<svg xmlns="http://www.w3.org/2000/svg" width="1788" id="svg" height="617"><style>text { font-family: Arial }</style><polyline fill="none" stroke="black" stroke-width="2" points="10,10,10,25,274.98800959232614,25,274.98800959232614,10"/><text x="10" y="35" font-family="arial, helvetica, sans-serif" font-size="10px" fill="black" font-style="italic" text-anchor="start">Scale: 1kB</text><path d="M314.20623501199043,89.5L70.84124700239806,89.5L70.84124700239806,77L10,102L70.84124700239806,127L70.84124700239806,114.5L314.20623501199043,114.5L314.20623501199043,89.5" fill="cyan" stroke="black" stroke-width="2" z-index="95"/><path d="M552.1654676258993,89.5L362.2220623501199,89.5L362.2220623501199,77L314.73621103117506,102L362.2220623501199,127L362.2220623501199,114.5L552.1654676258993,114.5L552.1654676258993,89.5" fill="lightgrey" stroke="black" stroke-width="2" z-index="95"/><path d="M623.1822541966427,89.5L776.8752997601919,89.5L776.8752997601919,77L815.2985611510792,102L776.8752997601919,127L776.8752997601919,114.5L623.1822541966427,114.5L623.1822541966427,89.5" fill="yellow" stroke="black" stroke-width="2" z-index="95"/><path d="M814.5035971223022,89.5L1042.6052757793764,89.5L1042.6052757793764,77L1099.630695443645,102L1042.6052757793764,127L1042.6052757793764,114.5L814.5035971223022,114.5L814.5035971223022,89.5" fill="#99cc00" stroke="black" stroke-width="2" z-index="95"/><path d="M1362.2338129496404,89.5L1204.0889688249401,89.5L1204.0889688249401,77L1164.552757793765,102L1204.0889688249401,127L1204.0889688249401,114.5L1362.2338129496404,114.5L1362.2338129496404,89.5" fill="black" stroke="black" stroke-width="2" z-index="95"/><path d="M1635.1714628297364,89.5L1482.1143884892087,89.5L1482.1143884892087,77L1443.8501199040768,102L1482.1143884892087,127L1482.1143884892087,114.5L1635.1714628297364,114.5L1635.1714628297364,89.5" fill="red" stroke="black" stroke-width="2" z-index="95"/><path d="M1777.9999999999998,89.5L1663.1011990407671,89.5L1663.1011990407671,77L1634.376498800959,102L1663.1011990407671,127L1663.1011990407671,114.5L1777.9999999999998,114.5L1777.9999999999998,89.5" fill="magenta" stroke="black" stroke-width="2" z-index="95"/><path d="M303.87170263788965,199.5L68.77434052757792,199.5L68.77434052757792,187L10,212L68.77434052757792,237L68.77434052757792,224.5L303.87170263788965,224.5L303.87170263788965,199.5" fill="cyan" stroke="black" stroke-width="2" z-index="95"/><path d="M590.5887290167866,199.5L366.3028776978417,199.5L366.3028776978417,187L310.2314148681055,212L366.3028776978417,237L366.3028776978417,224.5L590.5887290167866,224.5L590.5887290167866,199.5" fill="#99cc00" stroke="black" stroke-width="2" z-index="95"/><path d="M744.2817745803358,199.5L625.5671462829737,199.5L625.5671462829737,187L595.8884892086331,212L625.5671462829737,237L625.5671462829737,224.5L744.2817745803358,224.5L744.2817745803358,199.5" fill="yellow" stroke="black" stroke-width="2" z-index="95"/><path d="M297.51199040767386,309.5L67.50239808153475,309.5L67.50239808153475,297L10,322L67.50239808153475,347L67.50239808153475,334.5L297.51199040767386,334.5L297.51199040767386,309.5" fill="cyan" stroke="black" stroke-width="2" z-index="95"/><path d="M526.9916067146283,309.5L370.75467625899284,309.5L370.75467625899284,297L331.69544364508397,322L370.75467625899284,347L370.75467625899284,334.5L526.9916067146283,334.5L526.9916067146283,309.5" fill="lightgrey" stroke="black" stroke-width="2" z-index="95"/><path d="M548.1906474820144,309.5L719.6908872901679,309.5L719.6908872901679,297L762.5659472422062,322L719.6908872901679,347L719.6908872901679,334.5L548.1906474820144,334.5L548.1906474820144,309.5" fill="yellow" stroke="black" stroke-width="2" z-index="95"/><path d="M763.0959232613909,309.5L1005.8249400479616,309.5L1005.8249400479616,297L1066.5071942446043,322L1005.8249400479616,347L1005.8249400479616,334.5L763.0959232613909,334.5L763.0959232613909,309.5" fill="#99cc00" stroke="black" stroke-width="2" z-index="95"/><path d="M10,419.5L247.6412470023981,419.5L247.6412470023981,407L307.0515587529976,432L247.6412470023981,457L247.6412470023981,444.5L10,444.5L10,419.5" fill="cyan" stroke="black" stroke-width="2" z-index="95"/><path d="M307.5815347721823,419.5L527.415587529976,419.5L527.415587529976,407L582.3741007194245,432L527.415587529976,457L527.415587529976,444.5L307.5815347721823,444.5L307.5815347721823,419.5" fill="#99cc00" stroke="black" stroke-width="2" z-index="95"/><path d="M580.5191846522781,419.5L727.8525179856115,419.5L727.8525179856115,407L764.6858513189447,432L727.8525179856115,457L727.8525179856115,444.5L580.5191846522781,444.5L580.5191846522781,419.5" fill="yellow" stroke="black" stroke-width="2" z-index="95"/><path d="M10,529.5L149.06570743405277,529.5L149.06570743405277,517L183.83213429256594,542L149.06570743405277,567L149.06570743405277,554.5L10,554.5L10,529.5" fill="yellow" stroke="black" stroke-width="2" z-index="95"/><path d="M181.18225419664267,529.5L427.72709832134285,529.5L427.72709832134285,517L489.36330935251794,542L427.72709832134285,567L427.72709832134285,554.5L181.18225419664267,554.5L181.18225419664267,529.5" fill="#99cc00" stroke="black" stroke-width="2" z-index="95"/><text class="genomelabel" y="62" x="10" z-index="100"><tspan text-anchor="start"><tspan font-style="italic"><tspan font-weight="bold"><tspan font-size="12pt"><tspan font-family="arial, helvetica, sans-serif">Cryptobacterium curtum DSM 15641</tspan></tspan></tspan></tspan></tspan></text><text class="genomelabel" y="172" x="10" z-index="100"><tspan text-anchor="start"><tspan font-style="italic"><tspan font-weight="bold"><tspan style="font-family: arial, helvetica, sans-serif; font-size: 12pt;">Syntrophomonas wolfei subsp. wolfei str. Goettingen G311</tspan></tspan></tspan></tspan></text><text class="genomelabel" y="282" x="10" z-index="100"><tspan text-anchor="start"><tspan font-style="italic"><tspan font-weight="bold"><tspan style="font-family: arial, helvetica, sans-serif; font-size: 12pt;">Eggerthella lenta DSM 2243</tspan></tspan></tspan></tspan></text><text class="genomelabel" y="392" x="10" z-index="100"><tspan text-anchor="start"><tspan font-style="italic"><tspan font-weight="bold"><tspan style="font-family: arial, helvetica, sans-serif; font-size: 12pt;">Solobacterium moorei F0204</tspan></tspan></tspan></tspan></text><text class="genomelabel" y="502" x="10" z-index="100"><tspan text-anchor="start"><tspan font-style="italic"><tspan font-weight="bold"><tspan style="font-family: arial, helvetica, sans-serif; font-size: 12pt;">Atopobium rimae ATCC 49626</tspan></tspan></tspan></tspan></text><text class="genelabel" y="141.4" x="192.52374100719425" z-index="100"><tspan text-anchor="middle"><tspan fill="#000000"><tspan style="">TGT</tspan></tspan></tspan></text><text class="genelabel" y="141.4" x="457.1937649880096" z-index="100"><tspan text-anchor="middle"><tspan fill="#000000"><tspan style="">HAD</tspan></tspan></tspan></text><text class="genelabel" y="141.4" x="700.0287769784172" z-index="100"><tspan text-anchor="middle"><tspan font-weight="bold"><tspan fill="#000000">DUF208</tspan></tspan></tspan></text><text class="genelabel" y="141.4" x="928.5544364508393" z-index="100"><tspan text-anchor="middle"><tspan fill="#000000">QueA</tspan></tspan></text><text class="genelabel" y="141.4" x="1283.1613908872903" z-index="100"><tspan text-anchor="middle"><tspan fill="#000000"><tspan style=""><tspan style="">COG1738</tspan></tspan></tspan></tspan></text><text class="genelabel" y="141.4" x="1558.6429256594724" z-index="100"><tspan text-anchor="middle"><tspan fill="#000000"><tspan style="">QueC</tspan></tspan></tspan></text><text class="genelabel" y="141.4" x="1720.5505995203835" z-index="100"><tspan text-anchor="middle"><tspan fill="#000000"><tspan style="">QueF</tspan></tspan></tspan></text><text class="genelabel" y="251.4" x="186.3230215827338" z-index="100"><tspan text-anchor="middle"><tspan fill="#000000">TGT</tspan></tspan></text><text class="genelabel" y="251.4" x="478.44580335731416" z-index="100"><tspan text-anchor="middle"><tspan fill="#000000">QueA</tspan></tspan></text><text class="genelabel" y="251.4" x="684.9244604316548" z-index="100"><tspan text-anchor="middle"><tspan font-weight="bold"><tspan fill="#000000">DUF208</tspan></tspan></tspan></text><text class="genelabel" y="361.4" x="182.5071942446043" z-index="100"><tspan text-anchor="middle"><tspan fill="#000000">TGT</tspan></tspan></text><text class="genelabel" y="361.4" x="448.8731414868106" z-index="100"><tspan text-anchor="middle"><tspan fill="#000000">HAD</tspan></tspan></text><text class="genelabel" y="361.4" x="633.9407673860911" z-index="100"><tspan text-anchor="middle"><tspan font-weight="bold"><tspan fill="#000000">DUF208</tspan></tspan></tspan></text><text class="genelabel" y="361.4" x="884.4604316546763" z-index="100"><tspan text-anchor="middle"><tspan fill="#000000">QueA</tspan></tspan></text><text class="genelabel" y="471.4" x="128.82062350119907" z-index="100"><tspan text-anchor="middle"><tspan fill="#000000">TGT</tspan></tspan></text><text class="genelabel" y="471.4" x="417.4985611510792" z-index="100"><tspan text-anchor="middle"><tspan fill="#000000">QueA</tspan></tspan></text><text class="genelabel" y="471.4" x="654.1858513189447" z-index="100"><tspan text-anchor="middle"><tspan font-weight="bold"><tspan fill="#000000">DUF208</tspan></tspan></tspan></text><text class="genelabel" y="581.4" x="79.53285371702638" z-index="100"><tspan text-anchor="middle"><tspan font-weight="bold"><tspan fill="#000000">DUF208</tspan></tspan></tspan></text><text class="genelabel" y="581.4" x="304.4546762589928" z-index="100"><tspan text-anchor="middle"><tspan fill="#000000">QueA</tspan></tspan></text></svg>