<svg xmlns="http://www.w3.org/2000/svg" width="700" id="svg" height="1057"><polyline fill="none" stroke="black" stroke-width="2" points="10,10,10,25,197.8972091738049,25,197.8972091738049,10"/><text x="10" y="35" font-family="arial, helvetica, sans-serif" font-size="10px" fill="black" font-style="italic" text-anchor="start">Scale: 1kB</text><path d="M10,89.5L155.6579165515336,89.5L155.6579165515336,77L192.072395689417,102L155.6579165515336,127L155.6579165515336,114.5L10,114.5L10,89.5" fill="red" stroke="black" stroke-width="2" z-index="95"/><path d="M204.28571428571428,89.5L362.1193699917104,89.5L362.1193699917104,77L401.57778391820943,102L362.1193699917104,127L362.1193699917104,114.5L204.28571428571428,114.5L204.28571428571428,89.5" fill="#ccffff" stroke="black" stroke-width="2" z-index="95"/><path d="M207.29206963249516,199.5L49.45841392649902,199.5L49.45841392649902,187L10,212L49.45841392649902,237L49.45841392649902,224.5L207.29206963249516,224.5L207.29206963249516,199.5" fill="#ccffff" stroke="black" stroke-width="2" z-index="95"/><path d="M387.2975960210003,199.5L252.46255871787787,199.5L252.46255871787787,187L218.75379939209728,212L252.46255871787787,237L252.46255871787787,224.5L387.2975960210003,224.5L387.2975960210003,199.5" fill="red" stroke="black" stroke-width="2" z-index="95"/><path d="M565.4241503177673,199.5L439.1572257529704,199.5L439.1572257529704,187L407.5904946117712,212L439.1572257529704,237L439.1572257529704,224.5L565.4241503177673,224.5L565.4241503177673,199.5" fill="#ccffff" stroke="black" stroke-width="2" z-index="95"/><path d="M10,309.5L147.5407571152252,309.5L147.5407571152252,297L181.9259463940315,322L147.5407571152252,347L147.5407571152252,334.5L10,334.5L10,309.5" fill="red" stroke="black" stroke-width="2" z-index="95"/><path d="M204.4736114948881,309.5L362.7582205029014,309.5L362.7582205029014,297L402.3293727549047,322L362.7582205029014,347L362.7582205029014,334.5L204.4736114948881,334.5L204.4736114948881,309.5" fill="#ccffff" stroke="black" stroke-width="2" z-index="95"/><path d="M420.9311964631114,309.5L633.7811550151977,309.5L633.7811550151977,297L686.9936446532192,322L633.7811550151977,347L633.7811550151977,334.5L420.9311964631114,334.5L420.9311964631114,309.5" fill="#ccffff" stroke="black" stroke-width="2" z-index="95"/><path d="M275.4987565625864,419.5L63.09975131251727,419.5L63.09975131251727,407L10,432L63.09975131251727,457L63.09975131251727,444.5L275.4987565625864,444.5L275.4987565625864,419.5" fill="#ccffff" stroke="black" stroke-width="2" z-index="95"/><path d="M412.28792484111636,419.5L327.50870406189557,419.5L327.50870406189557,407L306.31389886709036,432L327.50870406189557,457L327.50870406189557,444.5L412.28792484111636,444.5L412.28792484111636,419.5" fill="white" stroke="black" stroke-width="2" z-index="95"/><path d="M463.7717601547389,419.5L594.09726443769,419.5L594.09726443769,407L626.6786405084277,432L594.09726443769,457L594.09726443769,444.5L463.7717601547389,444.5L463.7717601547389,419.5" fill="red" stroke="black" stroke-width="2" z-index="95"/><path d="M178.543796628903,529.5L43.70875932578059,529.5L43.70875932578059,517L10,542L43.70875932578059,567L43.70875932578059,554.5L178.543796628903,554.5L178.543796628903,529.5" fill="red" stroke="black" stroke-width="2" z-index="95"/><path d="M241.86515612047526,529.5L191.3583862945565,529.5L191.3583862945565,517L178.7316938380768,542L191.3583862945565,567L191.3583862945565,554.5L241.86515612047526,554.5L241.86515612047526,529.5" fill="#ccffff" stroke="black" stroke-width="2" z-index="95"/><path d="M10,639.5L84.85824813484388,639.5L84.85824813484388,627L103.57281016855484,652L84.85824813484388,677L84.85824813484388,664.5L10,664.5L10,639.5" fill="#ccffff" stroke="black" stroke-width="2" z-index="95"/><path d="M103.38491295938105,639.5L175.98839458413931,639.5L175.98839458413931,627L194.13926499032885,652L175.98839458413931,677L175.98839458413931,664.5L103.38491295938105,664.5L103.38491295938105,639.5" fill="white" stroke="black" stroke-width="2" z-index="95"/><path d="M190.0055263885051,639.5L226.5327438518928,639.5L226.5327438518928,627L235.6645482177397,652L226.5327438518928,677L226.5327438518928,664.5L190.0055263885051,664.5L190.0055263885051,639.5" fill="white" stroke="black" stroke-width="2" z-index="95"/><path d="M234.9129593810445,639.5L365.2384636639956,639.5L365.2384636639956,627L397.81983973473336,652L365.2384636639956,677L365.2384636639956,664.5L234.9129593810445,664.5L234.9129593810445,639.5" fill="red" stroke="black" stroke-width="2" z-index="95"/><path d="M172.90688035368888,749.5L42.581376070737775,749.5L42.581376070737775,737L10,762L42.581376070737775,787L42.581376070737775,774.5L172.90688035368888,774.5L172.90688035368888,749.5" fill="red" stroke="black" stroke-width="2" z-index="95"/><path d="M265.5402044763747,749.5L188.8781431334623,749.5L188.8781431334623,737L169.71262779773417,762L188.8781431334623,787L188.8781431334623,774.5L265.5402044763747,774.5L265.5402044763747,749.5" fill="#ccffff" stroke="black" stroke-width="2" z-index="95"/><path d="M10,859.5L143.93313069908817,859.5L143.93313069908817,847L177.4164133738602,872L143.93313069908817,897L143.93313069908817,884.5L10,884.5L10,859.5" fill="red" stroke="black" stroke-width="2" z-index="95"/><path d="M174.2221608179055,859.5L277.4904669798286,859.5L277.4904669798286,847L303.3075435203094,872L277.4904669798286,897L277.4904669798286,884.5L174.2221608179055,884.5L174.2221608179055,859.5" fill="white" stroke="black" stroke-width="2" z-index="95"/><path d="M330.3647416413374,859.5L437.6916275214148,859.5L437.6916275214148,847L464.5233489914341,872L437.6916275214148,897L437.6916275214148,884.5L330.3647416413374,884.5L330.3647416413374,859.5" fill="#ccffff" stroke="black" stroke-width="2" z-index="95"/><path d="M468.6570875932578,859.5L645.8817352859905,859.5L645.8817352859905,847L690.1878972091738,872L645.8817352859905,897L645.8817352859905,884.5L468.6570875932578,884.5L468.6570875932578,859.5" fill="#ccffff" stroke="black" stroke-width="2" z-index="95"/><path d="M190.94501243437415,969.5L46.18900248687481,969.5L46.18900248687481,957L10,982L46.18900248687481,1007L46.18900248687481,994.5L190.94501243437415,994.5L190.94501243437415,969.5" fill="red" stroke="black" stroke-width="2" z-index="95"/><path d="M281.5114672561481,969.5L208.45703232937274,969.5L208.45703232937274,957L190.1934235976789,982L208.45703232937274,1007L208.45703232937274,994.5L281.5114672561481,994.5L281.5114672561481,969.5" fill="white" stroke="black" stroke-width="2" z-index="95"/><path d="M376.2116606797458,969.5L301.80436584691904,969.5L301.80436584691904,957L283.2025421387124,982L301.80436584691904,1007L301.80436584691904,994.5L376.2116606797458,994.5L376.2116606797458,969.5" fill="#ccffff" stroke="black" stroke-width="2" z-index="95"/><text class="genomelabel" y="62" x="10" z-index="100"><tspan text-anchor="start"><tspan style="font-family: arial, helvetica, sans-serif; font-size: 12pt;">Methanococcus vannieli vannielii SB</tspan></tspan></text><text class="genomelabel" y="172" x="10" z-index="100"><tspan text-anchor="start"><tspan style="font-family: arial, helvetica, sans-serif; font-size: 12pt;">Methanococcus maripaludis C6</tspan></tspan></text><text class="genomelabel" y="282" x="10" z-index="100"><tspan text-anchor="start"><tspan style="font-family: arial, helvetica, sans-serif; font-size: 12pt;">Methanocaldococcus jannaschii DSM 2661</tspan></tspan></text><text class="genomelabel" y="392" x="10" z-index="100"><tspan text-anchor="start"><tspan style="font-family: arial, helvetica, sans-serif; font-size: 12pt;">Methanosphaera stadtmanae DSM 3091</tspan></tspan></text><text class="genomelabel" y="502" x="10" z-index="100"><tspan text-anchor="start"><tspan style="font-family: arial, helvetica, sans-serif; font-size: 12pt;">Thermovibrio ammonificans HB-1</tspan></tspan></text><text class="genomelabel" y="612" x="10" z-index="100"><tspan text-anchor="start"><tspan style="font-family: arial, helvetica, sans-serif; font-size: 12pt;">Caminibacter mediatlanticus TB-2</tspan></tspan></text><text class="genomelabel" y="722" x="10" z-index="100"><tspan text-anchor="start"><tspan style="font-family: arial, helvetica, sans-serif; font-size: 12pt;">Nitratiruptor sp. SB155-2</tspan></tspan></text><text class="genomelabel" y="832" x="10" z-index="100"><tspan text-anchor="start"><tspan style="font-family: arial, helvetica, sans-serif; font-size: 12pt;">Lachnospiraceae bacterium 1_4_56FAA</tspan></tspan></text><text class="genomelabel" y="942" x="10" z-index="100"><tspan text-anchor="start"><tspan style="font-family: arial, helvetica, sans-serif; font-size: 12pt;">Helicobacter cinaedi ATCC BAA-847</tspan></tspan></text><text class="genelabel" y="108" x="13" z-index="100"><tspan text-anchor="start"><tspan fill="#ffffff"><tspan font-style="italic"><tspan font-weight="bold">DUF89</tspan></tspan></tspan></tspan></text><text class="genelabel" y="108" x="207.28571428571428" z-index="100"><tspan text-anchor="start">purM</tspan></text><text class="genelabel" y="218" x="52.45841392649902" z-index="100">purM</text><text class="genelabel" y="218" x="255.46255871787787" z-index="100"><tspan text-anchor="start"><tspan fill="#ffffff"><tspan font-style="italic"><tspan font-weight="bold">DUF89</tspan></tspan></tspan></tspan></text><text class="genelabel" y="218" x="442.1572257529704" z-index="100"><tspan text-anchor="start">guaB</tspan></text><text class="genelabel" y="328" x="13" z-index="100"><tspan text-anchor="start"><tspan fill="#ffffff"><tspan font-style="italic"><tspan font-weight="bold">DUF89</tspan></tspan></tspan></tspan></text><text class="genelabel" y="328" x="207.4736114948881" z-index="100">purM</text><text class="genelabel" y="328" x="423.9311964631114" z-index="100"><tspan text-anchor="start">purF</tspan></text><text class="genelabel" y="438" x="66.09975131251727" z-index="100">purF</text><text class="genelabel" y="438" x="330.50870406189557" z-index="100"/><text class="genelabel" y="438" x="466.7717601547389" z-index="100"><tspan text-anchor="start"><tspan fill="#ffffff"><tspan font-style="italic"><tspan font-weight="bold">DUF89</tspan></tspan></tspan></tspan></text><text class="genelabel" y="548" x="46.70875932578059" z-index="100"><tspan text-anchor="start"><tspan fill="#ffffff"><tspan font-weight="bold"><tspan font-style="italic">DUF89</tspan></tspan></tspan></tspan></text><text class="genelabel" y="548" x="194.3583862945565" z-index="100"><tspan text-anchor="start">purE</tspan></text><text class="genelabel" y="658" x="13" z-index="100">purE</text><text class="genelabel" y="658" x="106.38491295938105" z-index="100"/><text class="genelabel" y="658" x="193.0055263885051" z-index="100"/><text class="genelabel" y="658" x="237.9129593810445" z-index="100"><tspan text-anchor="start"><tspan fill="#ffffff"><tspan font-style="italic"><tspan font-weight="bold">DUF89</tspan></tspan></tspan></tspan></text><text class="genelabel" y="768" x="45.581376070737775" z-index="100"><tspan text-anchor="start"><tspan fill="#ffffff"><tspan font-style="italic"><tspan font-weight="bold">DUF89</tspan></tspan></tspan></tspan></text><text class="genelabel" y="768" x="191.8781431334623" z-index="100">purE</text><text class="genelabel" y="878" x="13" z-index="100"><tspan text-anchor="start"><tspan font-weight="bold"><tspan font-style="italic"><tspan fill="#ffffff">DUF89</tspan></tspan></tspan></tspan></text><text class="genelabel" y="878" x="177.2221608179055" z-index="100"/><text class="genelabel" y="878" x="333.3647416413374" z-index="100"><tspan text-anchor="start">IMPC</tspan></text><text class="genelabel" y="878" x="471.6570875932578" z-index="100"><tspan text-anchor="start">AICARF</tspan></text><text class="genelabel" y="988" x="49.18900248687481" z-index="100"><tspan text-anchor="start"><tspan fill="#ffffff"><tspan font-style="italic"><tspan font-weight="bold">DUF89</tspan></tspan></tspan></tspan></text><text class="genelabel" y="988" x="211.45703232937274" z-index="100"/><text class="genelabel" y="988" x="304.80436584691904" z-index="100">purE</text></svg>